<svg xmlns="http://www.w3.org/2000/svg" xmlns:xlink="http://www.w3.org/1999/xlink" width="279.145" height="264.029" viewBox="0 0 279.145 264.029">
  <defs>
    <clipPath id="clip-path">
      <rect id="Rectangle_448" data-name="Rectangle 448" width="279.145" height="264.029" rx="15" fill="#fcf8f8" stroke="#eee" stroke-width="1"/>
    </clipPath>
    <linearGradient id="linear-gradient" x1="0.782" y1="0.69" x2="0.407" y2="0.533" gradientUnits="objectBoundingBox">
      <stop offset="0" stop-color="#485f96"/>
      <stop offset="0.882" stop-color="#fff"/>
    </linearGradient>
    <linearGradient id="linear-gradient-2" x1="0.499" y1="0.155" x2="0.511" y2="0.803" xlink:href="#linear-gradient"/>
    <linearGradient id="linear-gradient-3" x1="0.495" y1="0.166" x2="0.506" y2="0.782" xlink:href="#linear-gradient"/>
    <linearGradient id="linear-gradient-4" x1="0.268" y1="0.886" x2="0.628" y2="0.48" xlink:href="#linear-gradient"/>
    <linearGradient id="linear-gradient-5" x1="0.686" y1="0.181" x2="0.458" y2="0.562" gradientUnits="objectBoundingBox">
      <stop offset="0" stop-color="#cb6139"/>
      <stop offset="1" stop-color="#dc8d55"/>
    </linearGradient>
    <linearGradient id="linear-gradient-6" x1="-241.56" y1="-131.455" x2="-241.712" y2="-131.468" gradientUnits="objectBoundingBox">
      <stop offset="0" stop-color="#d4554c"/>
      <stop offset="1" stop-color="#dc8d55"/>
    </linearGradient>
    <linearGradient id="linear-gradient-7" x1="0.654" y1="0.837" x2="0.48" y2="0.469" gradientUnits="objectBoundingBox">
      <stop offset="0" stop-color="#c75c36"/>
      <stop offset="0.882" stop-color="#dc8d55"/>
    </linearGradient>
    <linearGradient id="linear-gradient-8" x1="0.296" y1="1.004" x2="0.455" y2="0.615" xlink:href="#linear-gradient-5"/>
    <linearGradient id="linear-gradient-9" x1="0.844" y1="0.882" x2="0.328" y2="0.452" gradientUnits="objectBoundingBox">
      <stop offset="0" stop-color="#785d5c"/>
      <stop offset="0.882" stop-color="#fff"/>
    </linearGradient>
  </defs>
  <g id="Mask_Group_39" data-name="Mask Group 39" clip-path="url(#clip-path)">
    <g id="Group_1099" data-name="Group 1099" transform="translate(116.824 51.578)" opacity="0.85">
      <g id="Group_1098" data-name="Group 1098" transform="translate(0 0)">
        <path id="Path_4177" data-name="Path 4177" d="M1004.5,968.257c-4.782,25.386-18.068,95.971-21.471,114.692h44.112c-.23-6.715-.79-20.04-1.969-34.192-1.684-20.207-3.368-38.73-3.555-47.945-.172-8.461,6.163-21.654,11.112-32.555Z" transform="translate(-900.987 -732.047)" fill="#485f96" opacity="0.32" style="mix-blend-mode: multiply;isolation: isolate"/>
        <path id="Path_4178" data-name="Path 4178" d="M714.24,1051.829c-3.649,9.261-10.384,34.8-12.349,43.22s-8.56,47.71-8.56,47.71H800.679s7.157-32.415,9.682-51.78a226.293,226.293,0,0,0,2.1-32.836Z" transform="translate(-693.331 -791.951)" fill="#cb7733"/>
        <path id="Path_4179" data-name="Path 4179" d="M854.736,1058.144l-98.227-6.315c-1.171,2.973-2.661,7.624-4.208,12.847,5.981,2.383,11.932,6.615,17.679,10.447,6.735,4.491,16.278,5.613,16.278,5.613l5.052-21.61a110.1,110.1,0,0,0,13.752,3.087c5.051.561,16,1.684,16,1.684s-4.49,8.139-1.684,10.1,12.629,3.929,18.8,3.087c4.987-.68,13.451-8.864,16.522-11.988C854.814,1060.669,854.736,1058.144,854.736,1058.144Z" transform="translate(-735.6 -791.951)" fill="#485f96" opacity="0.32" style="mix-blend-mode: multiply;isolation: isolate"/>
        <path id="Path_4180" data-name="Path 4180" d="M865.265,617.637c12.91,3.368,32.275,5.613,42.1,3.929s16-176.248,16-176.248l-47.991-3.929Z" transform="translate(-816.572 -354.392)" fill="#a5ffd2"/>
        <path id="Path_4181" data-name="Path 4181" d="M997.78,425.864c4.491,3.555,18.9,10.852,26.007,14.968s12.536,12.068,16.465,23.107,4.2,31.777,2.806,44.436c-1.964,17.868-10.477,27.69-15.716,31.432s-7.11,4.865-7.11,4.865-.561,22.452-2.058,33.491-3.181,19.084-3.368,22.639.187,9.916-1.123,11.226-17.587,8.045-23.949,9.168-14.032,1.684-15.529,1.123.561-10.29,1.31-14.032.748-14.594.187-21.7-3.742-36.858-3.742-46.026,5.8-27.691,5.8-33.865-.561-22.078.374-31.807,3.368-14.968,4.678-17.774S997.78,425.864,997.78,425.864Z" transform="translate(-893.051 -343.263)" fill="#1cb358"/>
        <path id="Path_4182" data-name="Path 4182" d="M995.187,457.11c-1.31,2.807-3.742,8.045-4.678,17.774s-.374,25.633-.374,31.807a38.9,38.9,0,0,1-.911,6.629l21.024-8.126,10.665-10.244c-.141-7.016,5.613-31.994,8.84-38.028,2.279-4.261,2.249-13.485,2.034-18.541-7.533-4.136-17.938-9.592-21.633-12.518C1010.154,425.864,996.5,454.3,995.187,457.11Z" transform="translate(-905.426 -343.263)" opacity="0.57" fill="url(#linear-gradient)" style="mix-blend-mode: multiply;isolation: isolate"/>
        <path id="Path_4183" data-name="Path 4183" d="M760.382,433.462c-7.016,5.332-19.645,11.787-27.784,17.681s-22.733,21.891-25.539,40.133-3.087,40.975,0,49.675,6.455,14.875,8.139,16.839l19.084-28.065s-.842,26.381-3.368,37.046S716.04,614.2,715.2,617.006s8.139,1.123,11.787,3.087S750,631.319,752.8,631.039s7.3-17.4,8.981-26.942,11.507-46.588,13.191-58.936-.281-51.92,0-62.3,0-21.469-1.965-24-5.286-5.94-7.2-6.969-7.25-4.537-7.952-7.063S760.382,433.462,760.382,433.462Z" transform="translate(-701.586 -348.709)" fill="#1cb358"/>
        <path id="Path_4184" data-name="Path 4184" d="M973.16,795.87a57.929,57.929,0,0,0-1.2,9.9c0,9.168,3.181,38.917,3.742,46.026.2,2.512.326,5.49.376,8.457,13.872-3.936,30.263-10.5,41.589-13.294q.254-1.734.506-3.583c1.5-11.039,2.058-33.491,2.058-33.491S994.07,795.83,973.16,795.87Z" transform="translate(-893.051 -608.481)" opacity="0.57" fill="url(#linear-gradient-2)" style="mix-blend-mode: multiply;isolation: isolate"/>
        <path id="Path_4185" data-name="Path 4185" d="M819,803.482c.3-2.224.488-5.333.589-8.993-1.392.029-37.915-.642-37.915-.642l-4.292,11.408c-.531,7.253-1.321,15.1-2.444,19.837-1.285,5.425-5.111,17.6-8.672,28.63,9.577,2.424,27.665,6.73,39.688,7.917C807.987,851.016,817.36,815.518,819,803.482Z" transform="translate(-745.611 -607.03)" opacity="0.57" fill="url(#linear-gradient-3)" style="mix-blend-mode: multiply;isolation: isolate"/>
        <path id="Path_4186" data-name="Path 4186" d="M819.434,515.682c-11.413-.561-33.116,19.271-33.116,19.271,1.5,3.742,5.8,8.42,6.923,11.6s2.245,16.979,2.245,16.979l3.368,13.144,22.078,6.735,13.1-2.366c-.153-15.37-.833-32.863-.66-39.264.2-7.314.116-14.971-.636-19.745A19.147,19.147,0,0,0,819.434,515.682Z" transform="translate(-759.984 -407.636)" opacity="0.57" fill="url(#linear-gradient-4)" style="mix-blend-mode: multiply;isolation: isolate"/>
        <path id="Path_4187" data-name="Path 4187" d="M875.2,396.466c-2.526.935-6.642,7.952-7.577,10.01s-3.742,7.484-4.3,9.823-2.245,6.455-3.555,7.671c-.974.9-2.152,3.181-1.871,3.555s2.245-.935,3.087-1.31a32.6,32.6,0,0,1,7.858-1.684,42.807,42.807,0,0,1,6.642.842s-3.274-7.858-2.619-12.255S875.2,396.466,875.2,396.466Z" transform="translate(-811.257 -322.191)" fill="#30cd6f"/>
        <path id="Path_4188" data-name="Path 4188" d="M1017.856,397.457c2.806,1.5,8.045,5.894,9.261,8.419,1.168,2.427,2.619,8.419,3.274,10.852s4.022,7.671,3.929,8.326-4.491,1.029-6.923,1.5-7.858,1.122-11.039,4.022a41.517,41.517,0,0,0-6.081,7.3s5.519-15.155,7.764-20.113C1019.056,415.52,1017.856,397.457,1017.856,397.457Z" transform="translate(-920.517 -322.901)" fill="#30cd6f"/>
        <path id="Path_4189" data-name="Path 4189" d="M913.376,296.377c0,6.455-.187,18.429-.655,24.323s-1.871,20.674-1.871,20.674,8.7,7.578,20.207,7.016,16-3.181,16-3.181a71.241,71.241,0,0,0,1.123-9.449,44.176,44.176,0,0,0-.655-9.074c-.281-1.029-.187-6.736-.187-11.974a82.411,82.411,0,0,1,1.216-12.349Z" transform="translate(-849.247 -250.447)" fill="url(#linear-gradient-5)"/>
        <path id="Path_4190" data-name="Path 4190" d="M919.7,300.257c.556,4.817,2.481,8.259,5.07,12.024,2.811,4.088,5.332,6.548,7.016,7.11s8.981,2.245,11.881,1.123c2.748-1.064,7.512-5.986,10.172-9.747.331-4.409,1.054-8.4,1.054-8.4l-35.175-5.987C919.723,297.519,919.716,298.835,919.7,300.257Z" transform="translate(-855.594 -250.447)" fill="#485f96" opacity="0.32" style="mix-blend-mode: multiply;isolation: isolate"/>
        <g id="Group_1095" data-name="Group 1095" transform="translate(55.99 24.662)">
          <path id="Path_4191" data-name="Path 4191" d="M904.689,222.832a9.31,9.31,0,0,0-9.858-.215c-5.171,3.124-4.578,10.665-1.131,13.843,3.73,3.438,9.7,1.616,9.7,1.616a52.86,52.86,0,0,1,.108-8.349A43.637,43.637,0,0,1,904.689,222.832Z" transform="translate(-891.031 -221.281)" fill="#db726b"/>
          <path id="Path_4192" data-name="Path 4192" d="M910.626,237.494a4.311,4.311,0,0,0-.453,7.236c1.877,1.373,4.569.961,5.571.742,0-1.383.054-3.024.223-4.694.135-1.332.3-2.5.466-3.489A6.515,6.515,0,0,0,910.626,237.494Z" transform="translate(-903.494 -232.333)" fill="#d4554c"/>
        </g>
        <g id="Group_1096" data-name="Group 1096" transform="translate(97.418 31.62)">
          <path id="Path_4193" data-name="Path 4193" d="M1041.487,246.065a9.31,9.31,0,0,1,9.3,3.279c3.735,4.749.518,11.6-3.83,13.351-4.7,1.9-9.642-1.912-9.642-1.912a52.808,52.808,0,0,0,2.847-7.849A43.668,43.668,0,0,0,1041.487,246.065Z" transform="translate(-1037.314 -245.85)" fill="#db726b"/>
          <path id="Path_4194" data-name="Path 4194" d="M1049.858,260.97a4.311,4.311,0,0,1-2.131,6.929c-2.241.621-4.614-.714-5.474-1.273.486-1.294,1.017-2.848,1.448-4.47.344-1.294.6-2.45.8-3.429A6.514,6.514,0,0,1,1049.858,260.97Z" transform="translate(-1040.854 -255.072)" fill="#d4554c"/>
        </g>
        <path id="Path_4195" data-name="Path 4195" d="M922.411,161.512c.842-5.239,2.9-12.068,7.016-16.745a36.234,36.234,0,0,1,11.881-8.7c2.713-1.216,11.787-2.526,12.816-1.5a1.51,1.51,0,0,1,.187,2.058s1.871-.187,2.245.281.187,1.684.187,1.684,4.771,4.4,6.081,8.887a39.761,39.761,0,0,1,1.684,12.442,58.886,58.886,0,0,1-2.058,12.629C961.8,174.329,922.411,161.512,922.411,161.512Z" transform="translate(-857.534 -134.199)" fill="#bb4f31"/>
        <path id="Path_4196" data-name="Path 4196" d="M918.623,197.254a103.554,103.554,0,0,0-1.5,16.091c0,6.455,2.152,10.477,5.239,14.968,2.811,4.089,5.333,6.548,7.016,7.11s8.981,2.245,11.881,1.123c3.259-1.262,9.355-7.952,11.413-11.694a77.168,77.168,0,0,0,5.987-16.558c.187-5.613.187-8.887,0-12.255s.094-7.484-1.777-8.139c-3.412-1.194-7.765,3.274-14.687,1.777s-10.01-5.519-12.723-5.613-4.21,4.023-6.081,6.829C921.486,193.754,918.623,197.254,918.623,197.254Z" transform="translate(-853.746 -169.94)" fill="#dc8d55"/>
        <path id="Path_4197" data-name="Path 4197" d="M954.451,246.172c-.112.74-.446,1.3-1.088,1.206-.754-.115-.783-.733-.671-1.473s.408-1.309,1.083-1.207S954.563,245.432,954.451,246.172Z" transform="translate(-879.204 -213.396)" fill="#181f29"/>
        <path id="Path_4198" data-name="Path 4198" d="M1029.021,262.524c-.112.74-.446,1.3-1.088,1.206-.755-.115-.783-.733-.671-1.473s.408-1.309,1.083-1.206S1029.134,261.784,1029.021,262.524Z" transform="translate(-932.656 -225.117)" fill="#181f29"/>
        <path id="Path_4199" data-name="Path 4199" d="M938.418,230.631a8.137,8.137,0,0,1,6.631-2.508c3.969.506,5.006,2.055,5.135,2.755.111.6.318,1.851-.185,1.829a52.5,52.5,0,0,0-5.215-1.605A42.457,42.457,0,0,0,938.418,230.631Z" transform="translate(-869.008 -201.483)" fill="#bb4f31"/>
        <path id="Path_4200" data-name="Path 4200" d="M1022.44,244.831a8.137,8.137,0,0,0-5.6-4.351c-3.942-.686-5.389.488-5.719,1.119-.283.542-.85,1.675-.363,1.8a52.583,52.583,0,0,1,5.457,0A42.456,42.456,0,0,1,1022.44,244.831Z" transform="translate(-920.727 -210.231)" fill="#bb4f31"/>
        <circle id="Ellipse_99" data-name="Ellipse 99" cx="2.806" cy="2.806" r="2.806" transform="matrix(0.923, -0.385, 0.385, 0.923, 67.544, 39.462)" fill="#d4554c"/>
        <circle id="Ellipse_100" data-name="Ellipse 100" cx="2.806" cy="2.806" r="2.806" transform="translate(91.772 42.515)" fill="#d4554c"/>
        <path id="Path_4201" data-name="Path 4201" d="M977.121,292.868c1.193,2.175,2.175,4,3.649,4.28S982.8,293.5,982.8,293.5Z" transform="translate(-896.75 -247.932)" fill="#485f96" opacity="0.24" style="mix-blend-mode: multiply;isolation: isolate"/>
        <path id="Path_4202" data-name="Path 4202" d="M982.028,239.4c.173,4.584,3.409,11.569,4,13.587s-1.655,3.229-3.387,3.012a50.775,50.775,0,0,1-5.629-1.406Z" transform="translate(-896.669 -209.606)" fill="url(#linear-gradient-6)"/>
        <path id="Path_4203" data-name="Path 4203" d="M959.063,306.846c.453-1.624,3.723.085,7.212.542s5.855-.033,6.682,1.287-2.994,4.41-7.9,3.441S958.617,308.444,959.063,306.846Z" transform="translate(-883.753 -257.459)" fill="#fff"/>
        <path id="Path_4204" data-name="Path 4204" d="M733.308,774.267c.281-.842,5.613-1.824,9.823-1.964s11.507.281,11.507.281-8,13.611-10.805,17.961a88.641,88.641,0,0,1-8.279,10.1s-2.1-10.665-2.245-14.313S733.308,774.267,733.308,774.267Z" transform="translate(-721.942 -591.568)" fill="#30cd6f"/>
        <path id="Path_4205" data-name="Path 4205" d="M741.394,679.078c4.911,3.648,15.857,7.3,26.1,6.735s24.417-5.613,36.344-12.208,38.168-30.029,40.273-32.415,6.548-7.484,9.261-9.729a43.318,43.318,0,0,0,7.11-8.326,20.123,20.123,0,0,1,3.239-3.976c.842-.772,2.14-2.315,1.368-2.736s-2.035-.07-3.859.982c0,0,1.859-1.368,3.192-2.14s1.228-1.964.6-2.315-2.947.105-4.35.737a29.268,29.268,0,0,0,3.929-2.14c.561-.561.561-1.4-.842-1.824s-5.964,1.508-7.788,2.21-10.033,5.122-10.033,5.122,3.859-5.473,5.052-6.876,5.823-3.929,6.946-5.052a2.549,2.549,0,0,0,.7-2.456,25.409,25.409,0,0,0-6.174,2.175,73.32,73.32,0,0,0-11.437,8c-2.245,2.058-11.881,13.845-13.1,15.623S794.3,645.68,788.824,647.5s-28.346,3.508-28.346,3.508-7.577,5.052-11.086,11.366S741.394,679.078,741.394,679.078Z" transform="translate(-727.782 -469.997)" fill="url(#linear-gradient-7)"/>
        <path id="Path_4206" data-name="Path 4206" d="M811.507,684.673s8.7,4.49,11.787,6.876a24.918,24.918,0,0,0,12.068,4.911c5.052.7,21.049,1.684,26.8,2.1s18.8,1.263,18.8,1.263l-2.526,30.31a195.042,195.042,0,0,1-30.31-5.473c-15.576-4.21-37.888-12.629-39.431-14.874a24.174,24.174,0,0,1,.842-7.718C810.666,698.565,811.507,684.673,811.507,684.673Z" transform="translate(-776.005 -528.776)" fill="url(#linear-gradient-8)"/>
        <path id="Path_4207" data-name="Path 4207" d="M1054.943,738.186l11.366.14s3.648,12.489,4.49,15.576,6.361,14.641,6.361,14.641a33.526,33.526,0,0,1-13.1,2.2c-7.3-.281-12.208-.561-12.208-.561a122.119,122.119,0,0,1-.281-16.839A63.91,63.91,0,0,1,1054.943,738.186Z" transform="translate(-949.98 -567.134)" fill="#30cd6f"/>
        <path id="Path_4208" data-name="Path 4208" d="M1130.593,641.566s-12.094,7.472-12.629,7.788a34.7,34.7,0,0,1,2.844-2.421q1.51-1.1,3.1-2.071t3.256-1.817A28.2,28.2,0,0,1,1130.593,641.566Z" transform="translate(-997.705 -497.877)" fill="#966666" opacity="0.44" style="mix-blend-mode: multiply;isolation: isolate"/>
        <path id="Path_4209" data-name="Path 4209" d="M1139.678,654.7c-.754.741-1.542,1.435-2.332,2.125s-3.146,2.755-3.556,3.088-.822.661-1.247.974-.852.622-1.3.906a7.811,7.811,0,0,1-1.39.766c.425-.31.808-.669,1.2-1.014l3.5-3.147a29.385,29.385,0,0,1,2.484-1.958C1137.893,655.82,1138.765,655.231,1139.678,654.7Z" transform="translate(-1006.229 -507.289)" fill="#966666" opacity="0.44" style="mix-blend-mode: multiply;isolation: isolate"/>
        <g id="Group_1097" data-name="Group 1097" transform="translate(127.957 132.674)">
          <path id="Path_4210" data-name="Path 4210" d="M1170.064,638.657a5.666,5.666,0,0,0-3.046.272,1.74,1.74,0,0,0-.006.851c.526,1.017,2.175.842,2.736.561a2.323,2.323,0,0,0,.759-.741A.951.951,0,0,0,1170.064,638.657Z" transform="translate(-1160.783 -628.378)" fill="#f4baa5"/>
          <path id="Path_4211" data-name="Path 4211" d="M1171.239,650.792a2.957,2.957,0,0,0-2.5.289l-.232.133c.14.6.316.912.912.947a5.863,5.863,0,0,0,2.055-.943A.434.434,0,0,0,1171.239,650.792Z" transform="translate(-1161.889 -637.041)" fill="#f4baa5"/>
          <path id="Path_4212" data-name="Path 4212" d="M1146.815,604.39a10.487,10.487,0,0,0,1.236-.512,2.49,2.49,0,0,0-.008-1.206,23.209,23.209,0,0,0-2.9.8C1145.668,604.349,1146.158,604.609,1146.815,604.39Z" transform="translate(-1145.147 -602.671)" fill="#f4baa5"/>
          <path id="Path_4213" data-name="Path 4213" d="M1167.652,638.736l.275-.139A.883.883,0,0,0,1167.652,638.736Z" transform="translate(-1161.279 -628.423)" fill="#f4baa5"/>
          <path id="Path_4214" data-name="Path 4214" d="M1165.143,629.209a6.339,6.339,0,0,0,3.052-.386.312.312,0,0,0,.112-.114c.122-.474-.163-.989-1.164-1.289a5.351,5.351,0,0,0-2.445.288C1164.57,628.435,1164.677,628.96,1165.143,629.209Z" transform="translate(-1159.125 -620.369)" fill="#f4baa5"/>
        </g>
        <path id="Path_4215" data-name="Path 4215" d="M741.182,1165.741c-1.5.561,7.858,19.084,7.858,19.084s-22.452-13.1-24.884-11.226,9.355,12.91,9.355,15.9-20.207,5.052-22.826,7.109c-1.831,1.439-11.163,15.225-16.611,23.389-.462,2.724-.743,4.4-.743,4.4h49.362c3.4-9.858,8.42-27.587,11.024-32.275,2.806-5.052,3.181-5.987,2.058-10.665S742.678,1165.18,741.182,1165.741Z" transform="translate(-693.331 -873.589)" opacity="0.36" fill="url(#linear-gradient-9)" style="mix-blend-mode: multiply;isolation: isolate"/>
      </g>
    </g>
  </g>
</svg>
