<svg xmlns="http://www.w3.org/2000/svg" width="24" height="24" viewBox="0 0 24 24"><g transform="translate(-3281.667 -2496.5)"><path fill="#8eb823" d="M3302.167,2520.5h-17a3.5,3.5,0,0,1-3.5-3.5v-17a3.5,3.5,0,0,1,3.5-3.5h17a3.5,3.5,0,0,1,3.5,3.5v17A3.5,3.5,0,0,1,3302.167,2520.5Zm-17-23a2.5,2.5,0,0,0-2.5,2.5v17a2.5,2.5,0,0,0,2.5,2.5h17a2.5,2.5,0,0,0,2.5-2.5v-17a2.5,2.5,0,0,0-2.5-2.5Z"/><path fill="#8eb823" d="M3290.167,2504.5h-8a.5.5,0,0,1,0-1h8a.5.5,0,0,1,0,1Z"/><path fill="#8eb823" d="M3305.167,2504.5h-8a.5.5,0,0,1,0-1h8a.5.5,0,0,1,0,1Z"/><path fill="#8eb823" d="M3302.167,2502.5h-3a.5.5,0,0,1-.5-.5v-3a.5.5,0,0,1,.5-.5h3a.5.5,0,0,1,.5.5v3A.5.5,0,0,1,3302.167,2502.5Zm-2.5-1h2v-2h-2Z"/><path fill="#8eb823" d="M3284.167,2501.5a.5.5,0,0,1-.5-.5v-3.5a.5.5,0,0,1,1,0v3.5A.5.5,0,0,1,3284.167,2501.5Z"/><path fill="#8eb823" d="M3286.167,2501.5a.5.5,0,0,1-.5-.5v-4a.5.5,0,0,1,1,0v4A.5.5,0,0,1,3286.167,2501.5Z"/><path fill="#8eb823" d="M3288.167,2501.5a.5.5,0,0,1-.5-.5v-4a.5.5,0,0,1,1,0v4A.5.5,0,0,1,3288.167,2501.5Z"/><path fill="#8eb823" d="M3293.667,2514.5a6,6,0,1,1,6-6A6.006,6.006,0,0,1,3293.667,2514.5Zm0-11a5,5,0,1,0,5,5A5.006,5.006,0,0,0,3293.667,2503.5Z"/><path fill="#8eb823" d="M3293.667,2511.5a3,3,0,1,1,3-3A3,3,0,0,1,3293.667,2511.5Zm0-5a2,2,0,1,0,2,2A2,2,0,0,0,3293.667,2506.5Z"/></g></svg>