<svg xmlns="http://www.w3.org/2000/svg" width="24" height="17.697" viewBox="0 0 24 17.697"><g transform="translate(-2993.667 -2452.652)"><path fill="#8eb823" d="M3005.667,2470.349c-1.172,0-2.344-.051-3.508-.153l-5.295-.46a3.48,3.48,0,0,1-3.2-3.486v-9.5a3.48,3.48,0,0,1,3.2-3.486l5.295-.46a40.515,40.515,0,0,1,7.016,0l5.295.46a3.48,3.48,0,0,1,3.2,3.486v9.5a3.48,3.48,0,0,1-3.2,3.486h0l-5.295.46C3008.012,2470.3,3006.839,2470.349,3005.667,2470.349Zm0-16.7q-1.716,0-3.421.149l-5.3.46a2.485,2.485,0,0,0-2.283,2.49v9.5a2.485,2.485,0,0,0,2.283,2.49l5.3.46a39.683,39.683,0,0,0,6.843,0l5.3-.46a2.485,2.485,0,0,0,2.283-2.49v-9.5a2.485,2.485,0,0,0-2.283-2.49l-5.295-.46Q3007.385,2453.651,3005.667,2453.651Z"/><path fill="#8eb823" d="M3003.167,2466.5a.5.5,0,0,1-.239-.061.5.5,0,0,1-.261-.439v-9a.5.5,0,0,1,.77-.421l7,4.5a.5.5,0,0,1,0,.842l-7,4.5A.5.5,0,0,1,3003.167,2466.5Zm.5-8.584v7.168l5.575-3.584Z"/></g></svg>