<svg xmlns="http://www.w3.org/2000/svg" width="118.733" height="34.064" viewBox="0 0 118.733 34.064"><defs><style>.a{fill:#fff;}.b{fill:#010101;}</style></defs><g transform="translate(0 0.001)"><path class="a" d="M276.526,665.786a3.415,3.415,0,0,1-3.416,3.415H161.217a3.42,3.42,0,0,1-3.424-3.415v-27.23a3.424,3.424,0,0,1,3.424-3.419h111.89a3.419,3.419,0,0,1,3.419,3.418h0v27.23Z" transform="translate(-157.793 -635.138)"/><path class="b" d="M276.526,665.786a3.415,3.415,0,0,1-3.416,3.415H161.217a3.42,3.42,0,0,1-3.424-3.415v-27.23a3.424,3.424,0,0,1,3.424-3.419h111.89a3.419,3.419,0,0,1,3.419,3.418h0v27.23Z" transform="translate(-157.793 -635.138)"/><path class="a" d="M263.192,688.942a5,5,0,0,1,2.451-4.2,5.322,5.322,0,0,0-4.151-2.183c-1.746-.179-3.44,1.016-4.33,1.016-.907,0-2.277-1-3.754-.97a5.549,5.549,0,0,0-4.652,2.76c-2.012,3.388-.511,8.367,1.416,11.106.964,1.342,2.091,2.839,3.565,2.786,1.443-.057,1.982-.894,3.722-.894,1.725,0,2.231.894,3.735.86,1.548-.023,2.523-1.347,3.454-2.7a10.935,10.935,0,0,0,1.579-3.129,4.866,4.866,0,0,1-3.036-4.451Zm-2.841-8.186a4.841,4.841,0,0,0,1.159-3.532,5.21,5.21,0,0,0-3.336,1.679,4.611,4.611,0,0,0-1.19,3.4,4.31,4.31,0,0,0,3.366-1.548Z" transform="translate(-235.779 -671.604)"/><g transform="translate(36.211 14.443)"><path class="a" d="M454.76,759.819h-2.016l-1.1-3.469H447.8l-1.052,3.469h-1.963l3.8-11.811h2.349l3.821,11.811Zm-3.454-4.925-1-3.084q-.158-.473-.6-2.225h-.036q-.176.754-.561,2.225l-.982,3.084Zm13.217.562a4.822,4.822,0,0,1-1.181,3.434,3.462,3.462,0,0,1-2.626,1.122,2.629,2.629,0,0,1-2.433-1.208v4.469h-1.893V754.1q0-1.365-.07-2.8h1.665l.106,1.35h.035a3.368,3.368,0,0,1,5.39-.335,4.709,4.709,0,0,1,1.007,3.138Zm-1.928.069a3.511,3.511,0,0,0-.561-2.051,1.939,1.939,0,0,0-1.648-.84,1.968,1.968,0,0,0-1.27.464,2.152,2.152,0,0,0-.745,1.219,2.464,2.464,0,0,0-.088.576v1.421a2.278,2.278,0,0,0,.57,1.569,1.892,1.892,0,0,0,1.481.64A1.94,1.94,0,0,0,462,757.7,3.625,3.625,0,0,0,462.6,755.525Zm11.727-.069a4.822,4.822,0,0,1-1.181,3.434,3.464,3.464,0,0,1-2.627,1.122,2.629,2.629,0,0,1-2.433-1.208v4.469H466.19V754.1q0-1.365-.07-2.8h1.665l.106,1.35h.035a3.369,3.369,0,0,1,5.391-.335,4.713,4.713,0,0,1,1.007,3.138Zm-1.929.069a3.51,3.51,0,0,0-.562-2.051,1.936,1.936,0,0,0-1.646-.84,1.977,1.977,0,0,0-1.272.464,2.151,2.151,0,0,0-.744,1.219,2.527,2.527,0,0,0-.089.576v1.421a2.286,2.286,0,0,0,.569,1.569,1.9,1.9,0,0,0,1.483.64,1.938,1.938,0,0,0,1.665-.824A3.625,3.625,0,0,0,472.393,755.525Zm12.884.981a3.154,3.154,0,0,1-1.05,2.454,4.656,4.656,0,0,1-3.218,1.034,5.619,5.619,0,0,1-3.059-.736l.438-1.577a5.267,5.267,0,0,0,2.734.737,2.579,2.579,0,0,0,1.664-.482,1.574,1.574,0,0,0,.6-1.287,1.649,1.649,0,0,0-.492-1.21,4.559,4.559,0,0,0-1.63-.911q-3.1-1.157-3.1-3.383a2.987,2.987,0,0,1,1.1-2.383,4.333,4.333,0,0,1,2.9-.929,5.735,5.735,0,0,1,2.682.561l-.475,1.543a4.691,4.691,0,0,0-2.27-.543,2.308,2.308,0,0,0-1.566.491,1.4,1.4,0,0,0-.475,1.07,1.447,1.447,0,0,0,.544,1.156,6.134,6.134,0,0,0,1.717.911,5.822,5.822,0,0,1,2.244,1.436,2.993,2.993,0,0,1,.722,2.048Zm6.274-3.784h-2.086v4.135q0,1.578,1.1,1.576a3.327,3.327,0,0,0,.841-.088l.052,1.437a4.291,4.291,0,0,1-1.472.209,2.269,2.269,0,0,1-1.753-.684,3.355,3.355,0,0,1-.631-2.3v-4.293h-1.243V751.3h1.243V749.74l1.859-.561v2.12h2.086v1.424Zm9.394,2.768a4.672,4.672,0,0,1-1.122,3.224,4,4,0,0,1-3.12,1.3,3.813,3.813,0,0,1-2.989-1.243,4.53,4.53,0,0,1-1.113-3.136,4.634,4.634,0,0,1,1.148-3.241,3.98,3.98,0,0,1,3.095-1.262,3.893,3.893,0,0,1,3.014,1.244,4.47,4.47,0,0,1,1.088,3.117Zm-1.962.044a3.813,3.813,0,0,0-.507-2.009,1.874,1.874,0,0,0-1.7-1.015,1.9,1.9,0,0,0-1.736,1.015,3.875,3.875,0,0,0-.508,2.045,3.8,3.8,0,0,0,.508,2.01,1.941,1.941,0,0,0,3.421-.017,3.828,3.828,0,0,0,.523-2.029Zm8.117-2.568a3.292,3.292,0,0,0-.6-.052,1.787,1.787,0,0,0-1.543.754,2.841,2.841,0,0,0-.472,1.682v4.469H502.6v-5.835q0-1.341-.055-2.681h1.649l.069,1.63h.052a2.922,2.922,0,0,1,.946-1.35,2.289,2.289,0,0,1,1.368-.456,3.044,3.044,0,0,1,.473.035l0,1.805Zm8.465,2.191a4.437,4.437,0,0,1-.069.858h-5.678a2.47,2.47,0,0,0,.824,1.929,2.818,2.818,0,0,0,1.857.595,6.284,6.284,0,0,0,2.3-.4l.3,1.313a7.1,7.1,0,0,1-2.856.526,4.141,4.141,0,0,1-3.113-1.164,4.3,4.3,0,0,1-1.13-3.128,4.878,4.878,0,0,1,1.053-3.206,3.628,3.628,0,0,1,2.979-1.366,3.175,3.175,0,0,1,2.788,1.366,4.6,4.6,0,0,1,.751,2.679Zm-1.8-.491a2.561,2.561,0,0,0-.368-1.455,1.653,1.653,0,0,0-1.507-.79,1.794,1.794,0,0,0-1.507.771,2.827,2.827,0,0,0-.56,1.472l3.942,0Z" transform="translate(-444.786 -747.833)"/></g><g transform="translate(37.319 5.792)"><path class="a" d="M454.442,685.615a12.064,12.064,0,0,1-1.361-.069v-5.71a10.309,10.309,0,0,1,1.6-.121c2.171,0,3.17,1.068,3.17,2.808C457.854,684.53,456.673,685.615,454.442,685.615Zm.318-5.168a3.8,3.8,0,0,0-.749.06v4.341a4.962,4.962,0,0,0,.629.026,2.057,2.057,0,0,0,2.232-2.325A1.894,1.894,0,0,0,454.76,680.447Zm6.209,5.212a1.992,1.992,0,0,1-2.016-2.153,2.039,2.039,0,0,1,2.085-2.214,1.977,1.977,0,0,1,2.016,2.145,2.051,2.051,0,0,1-2.085,2.221Zm.036-3.687c-.672,0-1.1.628-1.1,1.507,0,.862.44,1.49,1.094,1.49s1.094-.672,1.094-1.508c0-.852-.431-1.489-1.085-1.489Zm9.026-.594-1.309,4.186h-.853l-.542-1.818a13.8,13.8,0,0,1-.336-1.352h-.018a9.065,9.065,0,0,1-.336,1.352l-.577,1.818H465.2l-1.232-4.186h.956l.474,1.99q.168.711.284,1.344h.018c.068-.352.18-.792.344-1.335l.595-2h.758l.569,1.955c.138.474.25.939.336,1.378h.025a12.038,12.038,0,0,1,.284-1.378l.509-1.955Zm4.821,4.186h-.93v-2.4c0-.74-.284-1.111-.844-1.111a.966.966,0,0,0-.93,1.025v2.49h-.93v-2.989c0-.37-.009-.767-.035-1.2H472l.044.646h.026a1.5,1.5,0,0,1,1.327-.731c.879,0,1.456.672,1.456,1.765v2.506Zm2.566,0h-.931v-6.106h.931Zm3.392.095a1.993,1.993,0,0,1-2.016-2.153,2.039,2.039,0,0,1,2.084-2.214,1.976,1.976,0,0,1,2.016,2.145,2.05,2.05,0,0,1-2.085,2.221Zm.035-3.687c-.672,0-1.1.628-1.1,1.507,0,.862.44,1.49,1.093,1.49s1.094-.672,1.094-1.508c0-.852-.429-1.489-1.084-1.489Zm5.718,3.592-.067-.482h-.025a1.429,1.429,0,0,1-1.224.577,1.217,1.217,0,0,1-1.283-1.232c0-1.033.9-1.567,2.447-1.567v-.077c0-.551-.292-.827-.869-.827a1.959,1.959,0,0,0-1.094.311l-.189-.612a2.676,2.676,0,0,1,1.437-.362c1.094,0,1.646.577,1.646,1.732v1.542a6.325,6.325,0,0,0,.06,1Zm-.128-2.085c-1.034,0-1.552.25-1.552.844a.593.593,0,0,0,.638.654.891.891,0,0,0,.914-.852Zm5.424,2.085-.044-.672h-.026a1.4,1.4,0,0,1-1.344.767,1.908,1.908,0,0,1-1.757-2.136,1.986,1.986,0,0,1,1.833-2.231,1.258,1.258,0,0,1,1.181.569h.019v-2.4h.931v4.978c0,.4.01.784.035,1.128Zm-.138-2.463a1.013,1.013,0,0,0-.98-1.085c-.69,0-1.111.612-1.111,1.472,0,.844.438,1.422,1.093,1.422a1.045,1.045,0,0,0,1-1.111v-.7Zm6.836,2.558a1.992,1.992,0,0,1-2.015-2.153,2.039,2.039,0,0,1,2.085-2.214,1.976,1.976,0,0,1,2.016,2.145,2.05,2.05,0,0,1-2.085,2.221Zm.035-3.687c-.671,0-1.1.628-1.1,1.507,0,.862.439,1.49,1.093,1.49s1.094-.672,1.094-1.508c0-.852-.429-1.489-1.085-1.489Zm7.054,3.592h-.931v-2.4c0-.74-.284-1.111-.844-1.111a.965.965,0,0,0-.929,1.025v2.49h-.931v-2.989c0-.37-.009-.767-.035-1.2h.818l.044.646h.026a1.5,1.5,0,0,1,1.326-.732c.879,0,1.457.672,1.457,1.765Zm6.26-3.488h-1.024v2.033c0,.517.179.776.542.776a1.833,1.833,0,0,0,.413-.043l.026.707a2.065,2.065,0,0,1-.722.1c-.733,0-1.172-.4-1.172-1.464v-2.111h-.611v-.7h.611v-.767l.914-.276v1.042h1.024v.7Zm4.925,3.488h-.93v-2.386c0-.749-.283-1.128-.844-1.128a.912.912,0,0,0-.931.991v2.523h-.93v-6.106h.93v2.514h.019a1.412,1.412,0,0,1,1.259-.681c.886,0,1.427.689,1.427,1.783v2.49Zm5.046-1.869h-2.792a1.2,1.2,0,0,0,1.319,1.24,3.143,3.143,0,0,0,1.128-.2l.145.646a3.5,3.5,0,0,1-1.4.258,1.943,1.943,0,0,1-2.085-2.11,2.044,2.044,0,0,1,1.98-2.248,1.758,1.758,0,0,1,1.741,1.99,1.792,1.792,0,0,1-.032.422Zm-.853-.663c0-.646-.326-1.1-.921-1.1a1.1,1.1,0,0,0-1.017,1.1Z" transform="translate(-453.081 -679.457)"/></g></g></svg>