<svg xmlns="http://www.w3.org/2000/svg" width="23.998" height="22.284" viewBox="0 0 23.998 22.284"><path d="M16.57,22.284a.568.568,0,0,1-.4-.167l-3.6-3.6V20.57a.571.571,0,1,1-1.143,0V18.521l-3.6,3.6a.572.572,0,0,1-.808-.808l4.4-4.4V16H4A3.432,3.432,0,0,1,.572,12.57V1.143A.571.571,0,1,1,.572,0H23.427a.571.571,0,0,1,0,1.143V12.57A3.433,3.433,0,0,1,20,16H12.57v.906l4.4,4.4a.572.572,0,0,1-.4.976ZM1.714,1.143V12.57A2.288,2.288,0,0,0,4,14.856H20a2.288,2.288,0,0,0,2.286-2.285V1.143ZM8.57,10.857A2.857,2.857,0,1,1,11.428,8,2.86,2.86,0,0,1,8.57,10.857Zm0-4.572A1.714,1.714,0,1,0,10.285,8,1.716,1.716,0,0,0,8.57,6.285Zm10.285,4H14.285a.571.571,0,1,1,0-1.143h4.571a.571.571,0,1,1,0,1.143Zm0-3.428H14.285a.571.571,0,1,1,0-1.143h4.571a.571.571,0,1,1,0,1.143Z"/></svg>