<svg xmlns="http://www.w3.org/2000/svg" width="24" height="24" viewBox="0 0 24 24"><g transform="translate(-3137.667 -2448.5)"><path fill="#8eb823" d="M3159.167,2472.5h-5a.5.5,0,0,1-.5-.5v-9a.5.5,0,0,1,.5-.5h2.64l.667-2h-3.307a.5.5,0,0,1-.5-.5v-3a2.5,2.5,0,0,1,2.5-2.5h1.5v-2h-1.5a4.506,4.506,0,0,0-4.5,4.5v3a.5.5,0,0,1-.5.5h-2.5v2h2.5a.5.5,0,0,1,.5.5v9a.5.5,0,0,1-.5.5h-11a2.5,2.5,0,0,1-2.5-2.5v-19a2.5,2.5,0,0,1,2.5-2.5h19a2.5,2.5,0,0,1,2.5,2.5v19A2.5,2.5,0,0,1,3159.167,2472.5Zm-4.5-1h4.5a1.5,1.5,0,0,0,1.5-1.5v-19a1.5,1.5,0,0,0-1.5-1.5h-19a1.5,1.5,0,0,0-1.5,1.5v19a1.5,1.5,0,0,0,1.5,1.5h10.5v-8h-2.5a.5.5,0,0,1-.5-.5v-3a.5.5,0,0,1,.5-.5h2.5V2457a5.507,5.507,0,0,1,5.5-5.5h2a.5.5,0,0,1,.5.5v3a.5.5,0,0,1-.5.5h-2a1.5,1.5,0,0,0-1.5,1.5v2.5h3.5a.5.5,0,0,1,.475.658l-1,3a.5.5,0,0,1-.475.342h-2.5Z"/></g></svg>