<svg xmlns="http://www.w3.org/2000/svg" xmlns:xlink="http://www.w3.org/1999/xlink" width="242.956" height="165.382" viewBox="0 0 242.956 165.382">
  <defs>
    <clipPath id="clip-path">
      <path id="Path_8600" data-name="Path 8600" d="M0,0H242.956V165.382H0Z" transform="translate(-13698 -16408.613)" fill="#fff" stroke="#707070" stroke-width="1"/>
    </clipPath>
  </defs>
  <g id="Mask_Group_67" data-name="Mask Group 67" transform="translate(13698 16408.613)" clip-path="url(#clip-path)">
    <g id="Group_19175" data-name="Group 19175" transform="translate(-13686.99 -16381.348)">
      <g id="Group_19162" data-name="Group 19162" transform="translate(40.765 51.57)">
        <path id="Path_8551" data-name="Path 8551" d="M-1291.72,979.923s9.42-.944,14.788,3.291,17.673,18.96,20.17,24.385,2.444,6.816,2.444,6.816l-7.831-.293s-1.076-3.306-3.372-3.776-5.138-2.4-5.815-4.925-1.151-3.6-4.039-4.281-3.49-2.916-4.071-5.724-2.5-4.32-5.216-4.9-2.752-4.33-2.791-5.58-1.416-1.11-2.4-2.2A15.66,15.66,0,0,1-1291.72,979.923Z" transform="translate(1291.72 -919.482)" fill="#3c5b4f"/>
        <path id="Path_8552" data-name="Path 8552" d="M-1160.435,981.716s1.862-32.228,5.352-46.942a141.436,141.436,0,0,1,8.961-26.029,7.122,7.122,0,0,1,1.067,2.783c-.035,1.018-.734,4.465-.326,5.746s1.982,3.4,1.7,5.905-2.063,3.68-1.451,5.6,2.413,3.059,1.947,5.827-3.007,2.974-3,4.985,1.359,3.7,1.207,5.761-2.051,2.87-2.133,4.307.548,2.848-.151,4.884-2.745,2.386-2.931,4.058.2,3.461-.583,5.223-1.539,1.095-1.644,2.74.315,2.116-.2,3.892-1.953,2.335-2.057,3.98-.221,5.511-.221,5.511Z" transform="translate(1226.131 -883.967)" fill="#47775e"/>
        <path id="Path_8553" data-name="Path 8553" d="M-1257.715,897.095a172.741,172.741,0,0,1,24.014,36.092c10.117,20.752,16.677,45.255,16.677,45.255l-11.016,3.511s-15.358-32.285-16.161-36.376-2.26-4.464-2.9-6.365c-1.051-3.1-.1-5.017-.771-6.345s-1.98-1.893-2.507-4.529c-.484-2.421.49-3.171-.078-4.953s-2.795-2.685-3.047-5.829,1.039-4,.39-6.037-2.244-3.117-3.4-6.208S-1257.715,897.095-1257.715,897.095Z" transform="translate(1274.731 -878.146)" fill="#3c5b4f"/>
        <g id="Group_19160" data-name="Group 19160" transform="translate(3.181 39.133)">
          <path id="Path_8554" data-name="Path 8554" d="M-1241.438,993.19s-8.249-15.9-12.367-22.906-13.034-19.084-18.518-24.466a44.963,44.963,0,0,0-13.04-8.387,23.394,23.394,0,0,0,2.478,4.448,9.847,9.847,0,0,1,2.038,6.393c-.2,2.088.677,5.33,3.239,6.714s3.5,5.31,3.489,7.25.653,5.25,3.672,6.84,3.346,3.6,3.585,6.075,1.111,6.688,4.432,8.975,4.355,2.573,4.849,4.616,2.665,6.369,5.634,7.8Z" transform="translate(1285.364 -937.431)" fill="#47775e"/>
        </g>
        <path id="Path_8555" data-name="Path 8555" d="M-1199.238,960.949s-10.335-36.5-12.733-54.174-.72-30.6.949-37.63,3.409-10.456,3.872-9.848,1.714,3.685,1.049,5.408-1.591,2.623-.891,4.818,2.439,3,2.615,5.665-.76,3.114-.209,6.112,1.565,2.372,2.248,5.782-1.276,4.034-.743,6.13,2.658,3.686,2.973,7.213-1.442,3.936-.908,6.032,2.229,2.765,2.99,6-.979,4.543-.944,6.346,2.265,2.451,2.729,5.175,4.632,34.541,4.632,34.541Z" transform="translate(1252.475 -859.228)" fill="#426e60"/>
        <path id="Path_8556" data-name="Path 8556" d="M-1155.28,998.679c.53-5.106,3-21.609,7.073-31.673s12.733-20.682,16.591-22.114a3.965,3.965,0,0,1-.128,3.265c-.839,1.88-1.707,3.668-.914,6.437s1.731,4.586.566,6.57-4.26,3.272-4.715,5.23,1.562,4.338.3,6.857-3.893,2.45-5.222,4.486a14.32,14.32,0,0,0-2.062,7.911c-.07,3.448-2.8,6.735-6.976,8.571l-1.042,3.354Z" transform="translate(1223.556 -902.026)" fill="#558a6f"/>
        <g id="Group_19161" data-name="Group 19161" transform="translate(52.093 6.746)">
          <path id="Path_8557" data-name="Path 8557" d="M-1180.882,872.71s-5.279,17.7-6.44,29.708,1.276,51.378,4.153,64.213l11.872-3.785a6.558,6.558,0,0,0,.766-4.789,5.023,5.023,0,0,1,.944-5.076c.962-1.213.489-4.387-.621-6.6s-2.038-5.547-.447-8.169a11.653,11.653,0,0,0,1.1-8.814c-.752-2.783-3.76-7.567-3.979-10.368s2.089-6.559,1.406-9.969-4.214-7.724-3.962-11.582,1.661-5.365,1.057-8.951-3.463-4.942-3.988-6.587.437-2.86.114-4.721A16.61,16.61,0,0,0-1180.882,872.71Z" transform="translate(1187.619 -872.71)" fill="#417257"/>
        </g>
      </g>
      <g id="Group_19165" data-name="Group 19165" transform="translate(148.687 31.532)">
        <g id="Group_19163" data-name="Group 19163" transform="translate(26.354 15.883)">
          <path id="Path_8558" data-name="Path 8558" d="M-1011.726,850.926s6.272,18.3,7.839,30.616-.235,52.432-3.137,65.423l-13.277-4.36s-1.733-2.572-.961-4.924a5,5,0,0,0-1.166-5.224c-1.1-1.28-.644-4.5.538-6.719s2.136-5.581.308-8.327a11.329,11.329,0,0,1-1.426-9.049c.772-2.811,4-7.573,4.182-10.426s-2.472-6.788-1.792-10.242,4.5-7.715,4.135-11.667-1.969-5.55-1.38-9.188,3.733-4.9,4.278-6.563-.551-2.939-.234-4.827A15.235,15.235,0,0,1-1011.726,850.926Z" transform="translate(1023.386 -850.926)" fill="#3c5b4f"/>
        </g>
        <path id="Path_8559" data-name="Path 8559" d="M-923.169,977.926s-10.582-.583-16.481,3.911-19.279,19.865-21.926,25.447-2.55,6.987-2.55,6.987l8.767-.605s1.114-3.385,3.674-3.951,5.691-2.631,6.38-5.208,1.189-3.682,4.407-4.488,3.831-3.086,4.4-5.947,2.676-4.466,5.709-5.162,2.964-4.485,2.972-5.751,1.555-1.177,2.632-2.322A15.954,15.954,0,0,0-923.169,977.926Z" transform="translate(1020.135 -898.479)" fill="#2c544a"/>
        <path id="Path_8560" data-name="Path 8560" d="M-1004.805,945.071s15.815-44.248,19.757-64.683,1.935-34.08-.236-41.215-4.548-10.259-5.227-9.412-2.553,4.722-1.657,6.373,2.19,2.294,1.127,4.985-3.566,4.24-3.9,7.25.991,3.152.117,6.673-2.3,3.215-3.375,7.24,1.7,3.972.876,6.491-3.9,5.081-4.452,9.1,1.939,3.8,1.116,6.32-3.261,3.9-4.441,7.762,1.26,4.648,1.156,6.653-3.3,3.568-4.042,6.753-7.628,39.919-7.628,39.919Z" transform="translate(1045.855 -824.402)" fill="#47775e"/>
        <path id="Path_8561" data-name="Path 8561" d="M-1042.54,928.124s-5.665-47.65-12.8-69.678a214.124,214.124,0,0,0-17.419-39.26s-1.763,2.483-1.625,3.987,1.605,6.651,1,8.494-3.154,4.8-2.482,8.518,3.834,5.634,2.926,8.4-3.923,4.253-2.909,8.377,5.405,4.692,5.538,7.652-2.057,5.3-1.639,8.357,3.752,4.44,4,6.564-.727,4.136.633,7.207,4.909,3.8,5.358,6.28-.088,5.075,1.4,7.752,2.733,1.772,3.039,4.206-.381,3.083.638,5.751,3.54,3.641,3.846,6.075.8,8.138.8,8.138Z" transform="translate(1076.052 -819.186)" fill="#47775e"/>
        <path id="Path_8562" data-name="Path 8562" d="M-949.687,866.67a174.847,174.847,0,0,0-27.86,38.661c-11.6,22.394-18.846,49.078-18.846,49.078l13.277,4.36s17.588-34.857,18.449-39.325,2.6-4.813,3.32-6.878c1.182-3.366-.007-5.519.766-6.951s2.323-2,2.889-4.874c.52-2.643-.666-3.513-.03-5.45s3.28-2.83,3.5-6.281-1.344-4.451-.616-6.664,2.61-3.331,3.913-6.683S-949.687,866.67-949.687,866.67Z" transform="translate(1036.255 -842.909)" fill="#558a6f"/>
        <g id="Group_19164" data-name="Group 19164" transform="translate(45.961 50.403)">
          <path id="Path_8563" data-name="Path 8563" d="M-984.2,983.01s10.07-18.2,15.122-26.192,16.07-21.692,22.9-27.723,16.36-9.185,16.36-9.185a24.743,24.743,0,0,1-3.034,5.082,10.34,10.34,0,0,0-2.423,7.377c.307,2.451-.722,6.2-3.942,7.7s-4.309,6.042-4.245,8.311-.692,6.107-4.49,7.822-4.16,4.048-4.4,6.932-1.237,7.766-5.4,10.282-5.469,2.8-6.043,5.166-3.221,7.319-6.959,8.85Z" transform="translate(984.205 -919.91)" fill="#47775e"/>
        </g>
        <path id="Path_8564" data-name="Path 8564" d="M-1012.673,974.525c.915-5.205,3.084-22.316,1.72-33.716s-7.365-25.073-10.989-27.929a3.749,3.749,0,0,0-.806,3.249c.337,2.158.73,4.238-.9,6.655s-3.132,3.844-2.484,6.228,3.515,4.812,3.426,6.9-2.883,3.664-2.285,6.61,3.367,3.868,4.171,6.364a14.423,14.423,0,0,1-.12,8.533c-.92,3.406.987,7.656,4.829,11.03l.123,3.681Z" transform="translate(1051.187 -865.995)" fill="#558a6f"/>
      </g>
      <g id="Group_19168" data-name="Group 19168" transform="translate(221.712 82.808)">
        <g id="Group_19166" data-name="Group 19166" transform="translate(10.617 7.539)">
          <path id="Path_8565" data-name="Path 8565" d="M-902.908,936.72s5.369,11.134,7.038,18.756,2.049,32.8.474,41.065l-9.908-2.067s-1.378-1.523-.912-3.032a2.821,2.821,0,0,0-1.075-3.208c-.857-.746-.662-2.783.11-4.228s1.328-3.6-.127-5.222a6.23,6.23,0,0,1-1.427-5.588c.446-1.8,2.611-4.934,2.621-6.727s-2.1-4.122-1.746-6.316,2.972-5.048,2.534-7.5-1.677-3.373-1.4-5.677,2.526-3.251,2.855-4.316-.528-1.81-.376-3.007A9.037,9.037,0,0,1-902.908,936.72Z" transform="translate(908.905 -936.72)" fill="#3c5b4f"/>
        </g>
        <path id="Path_8566" data-name="Path 8566" d="M-803.181,1007.377s-7.774.161-11.9,3.264-13.277,13.378-14.979,17-1.572,4.5-1.572,4.5l6.4-.814a4.17,4.17,0,0,1,2.524-2.653c1.851-.481,4.056-1.928,4.451-3.573s.716-2.361,3.038-3.025,2.674-2.12,2.972-3.937,1.77-2.925,3.962-3.511,1.98-2.952,1.933-3.744,1.089-.814,1.829-1.583A10.042,10.042,0,0,0-803.181,1007.377Z" transform="translate(880.92 -964.481)" fill="#2c544a"/>
        <path id="Path_8567" data-name="Path 8567" d="M-891.5,994.566s9.708-28.453,11.729-41.427-.027-21.406-1.919-25.76-3.766-6.19-4.226-5.626-1.669,3.08-.943,4.068,1.7,1.326,1.037,3.061-2.432,2.828-2.546,4.727.86,1.922.368,4.167-1.549,2.124-2.165,4.695,1.413,2.4.917,4.016-2.64,3.371-2.875,5.909,1.581,2.28,1.085,3.9-2.222,2.6-2.923,5.074,1.12,2.844,1.129,4.1-2.266,2.395-2.674,4.423-3.9,25.34-3.9,25.34Z" transform="translate(914.773 -921.654)" fill="#47775e"/>
        <path id="Path_8568" data-name="Path 8568" d="M-912.862,1007.411s-3.456-20.5-7.187-29.776a84.311,84.311,0,0,0-8.873-16.336,3.8,3.8,0,0,0-.7,1.806c.09.648.867,2.826.612,3.654s-1.412,2.225-1.033,3.815,1.9,2.286,1.52,3.529-1.784,2.021-1.237,3.772,2.631,1.809,2.742,3.092-.885,2.4-.638,3.708,1.845,1.77,2,2.684-.276,1.831.417,3.109,2.382,1.442,2.634,2.5.042,2.213.789,3.314,1.321.653,1.5,1.7-.129,1.358.4,2.475,1.732,1.432,1.917,2.478.511,3.507.511,3.507Z" transform="translate(930.122 -941.46)" fill="#47775e"/>
        <path id="Path_8569" data-name="Path 8569" d="M-855.633,941.751A112.919,112.919,0,0,0-874.4,967.308c-7.546,14.578-11.723,31.624-11.723,31.624l9.908,2.068s11.4-22.669,11.845-25.506,1.7-3.138,2.14-4.466c.723-2.163-.239-3.45.267-4.384s1.617-1.363,1.91-3.191c.269-1.679-.637-2.164-.253-3.406s2.282-1.933,2.3-4.1-1.172-2.716-.734-4.136,1.77-2.213,2.583-4.373A16.4,16.4,0,0,0-855.633,941.751Z" transform="translate(908.139 -931.694)" fill="#558a6f"/>
        <g id="Group_19167" data-name="Group 19167" transform="translate(30.039 29.751)">
          <path id="Path_8570" data-name="Path 8570" d="M-870.093,1023.262s6.6-11.878,9.965-17.128,10.85-14.362,15.6-18.472a42.229,42.229,0,0,1,11.592-6.555,15.15,15.15,0,0,1-2.006,3.329,5.892,5.892,0,0,0-1.462,4.733,4.605,4.605,0,0,1-2.561,5.008c-2.3,1.1-2.9,3.992-2.757,5.407a4.946,4.946,0,0,1-2.956,5.114c-2.709,1.262-2.875,2.738-2.928,4.553a7.783,7.783,0,0,1-3.518,6.7c-2.941,1.78-3.886,2.023-4.207,3.531s-2.049,4.736-4.721,5.879Z" transform="translate(870.093 -981.107)" fill="#47775e"/>
        </g>
        <path id="Path_8571" data-name="Path 8571" d="M-900.271,1014.417c.45-3.3,1.313-14.107-.169-21.168s-6.456-15.312-9.231-16.919a2.143,2.143,0,0,0-.453,2.072c.338,1.333.715,2.614-.375,4.206s-2.13,2.559-1.555,4.018,2.778,2.835,2.8,4.147-1.956,2.434-1.394,4.246,2.63,2.252,3.324,3.772a7.783,7.783,0,0,1,.274,5.342c-.529,2.176,1.047,4.739,4,6.657l.247,2.3Z" transform="translate(921.177 -948.97)" fill="#558a6f"/>
      </g>
      <path id="Path_8572" data-name="Path 8572" d="M-1125.935,961.781s-2.616-26.676-11.267-49.826c-8.594-23-23.8-40.479-34.467-33.635-6.061,3.888,9.385,33.46,17.171,45.273s14.992,35.241,15.877,39.155Z" transform="translate(1273.197 -816.447)" fill="#587556"/>
      <g id="Group_19169" data-name="Group 19169" transform="translate(128.455 65.861)">
        <path id="Path_8573" data-name="Path 8573" d="M-1053.237,965.513s3.984-24.365,3.286-48.154c-.693-23.633,2.278-29.23-7.864-29.567-11.108-.369-11.126,21.51-8.316,34.483s3.728,37.128,3.425,41.007Z" transform="translate(1092.108 -887.788)" fill="#4c674d"/>
        <path id="Path_8574" data-name="Path 8574" d="M-1076.373,988.472s4.133-24.582-1.038-46.176-11.674-28.579-18.4-26.048-2.411,21.354,1.191,30.038,10.245,12.562,12.256,20.86,1.117,17.261,1.039,20.415Z" transform="translate(1107.919 -901.76)" fill="#587556"/>
        <path id="Path_8575" data-name="Path 8575" d="M-1089.564,1004.6c1.562-8.067,2.239-27.727-1.28-38.226-4.764-14.214-14.031-22.5-20.977-19.79-7.658,2.992-5.039,18.216,1.762,26.819,7.229,9.146,12.067,19.53,13.432,24.673Z" transform="translate(1116.484 -916.908)" fill="#8baa81"/>
        <path id="Path_8576" data-name="Path 8576" d="M-1049.389,970.725c.758-6.628,6.942-22.313,11.858-39.719,4.673-16.547,6.394-27.923,6.421-36.041s-6.169-8.121-9-.576-5.7,25.111-7.487,36.555c-1.844,11.828-5.649,43.312-5.649,43.312Z" transform="translate(1084.889 -888.294)" fill="#5f7d5c"/>
        <path id="Path_8577" data-name="Path 8577" d="M-1038.678,988.336a136.925,136.925,0,0,1,10.531-27.82c7.3-14.144,22.465-25.186,21.837-31.755s-13.323-5.583-22.81,5.3c-8.114,9.3-8.473,19.624-10.782,31.792a132.2,132.2,0,0,0-2.19,23.194Z" transform="translate(1079.319 -906.205)" fill="#587556"/>
        <path id="Path_8578" data-name="Path 8578" d="M-1032.6,1018.425s3.982-10.531,11.594-16.09,13.369-8.93,11.481-16.246-13.9-7.949-19.382.7c-6.845,10.8-9.975,33.964-9.975,33.964Z" transform="translate(1077.714 -934.082)" fill="#63825f"/>
      </g>
      <g id="Group_19170" data-name="Group 19170" transform="translate(114.038 0)">
        <path id="Path_8579" data-name="Path 8579" d="M-1111.1,865.293a34.027,34.027,0,0,1-25.606-11.2c-5.965-6.838-8.583-14.4-8.583-24.006V791.24c0-9.6,2.764-17.459,9.02-24.442a33.683,33.683,0,0,1,25.169-10.62,33.305,33.305,0,0,1,25.17,10.62c6.256,6.692,9.02,14.695,9.02,24.442v38.846c0,9.457-2.619,17.313-8.729,24.151A33.934,33.934,0,0,1-1111.1,865.293Zm0-98.787a23.426,23.426,0,0,0-19.5,10.33,26.048,26.048,0,0,0-3.928,14.4v38.846c0,5.238,1.018,10.184,3.928,14.4a23.366,23.366,0,0,0,19.5,10.476,23.15,23.15,0,0,0,19.5-10.621c2.91-4.073,3.928-8.583,3.928-14.258V791.24a25.385,25.385,0,0,0-3.928-14.258A23.018,23.018,0,0,0-1111.1,766.506Z" transform="translate(1145.294 -756.173)" fill="#fff"/>
      </g>
      <g id="Group_19171" data-name="Group 19171" transform="translate(0 92.96)">
        <path id="Path_8580" data-name="Path 8580" d="M-1325.922,1034.8c-1.641-5.981-8.747-19.524-16.394-25.476-10.354-8.057-22.835-10.615-28.658-6.484-6.42,4.554,2.2,14,12.359,17.588,10.8,3.81,19.709,9.249,23.1,12.283Z" transform="translate(1373.184 -971.391)" fill="#709168"/>
        <path id="Path_8581" data-name="Path 8581" d="M-1303.791,1003.077s2.751-21.064-5.175-37.557c-7.875-16.386-18.33-19.275-26.782-13.666-4.8,3.185-1.079,16.671,5.717,24.9s15.057,24.913,15.926,27.733Z" transform="translate(1355.565 -945.586)" fill="#63825f"/>
        <path id="Path_8582" data-name="Path 8582" d="M-1324.864,1011.1s-5.177-22.642-14.849-37.646-20.15-21.3-26.74-18.374-.132,10.822,5.363,16.613,19.423,17.863,23.165,23.625,7.133,13.58,7.668,15.9Z" transform="translate(1371.214 -948.155)" fill="#84a579"/>
        <path id="Path_8583" data-name="Path 8583" d="M-1287.419,1003.766a163.583,163.583,0,0,1-3.944-32.05c-.242-12.982,2.091-20.753-.335-26.411s-8.733-3.717-9.333,2.42,1.78,19.266,3.421,27.79c1.7,8.811,7.333,31.917,7.333,31.917Z" transform="translate(1337.184 -941.942)" fill="#709168"/>
        <path id="Path_8584" data-name="Path 8584" d="M-1270.365,1008.867a76.129,76.129,0,0,1,2.316-22.665c3.157-12.133,10.171-24.281,7.548-28.656s-11.629-.253-14.123,9.157-3.369,16.43-2.044,25.623,3.04,18.1,3.04,18.1Z" transform="translate(1325.272 -948.864)" fill="#698962"/>
        <path id="Path_8585" data-name="Path 8585" d="M-1260.428,1030.4s.872-8.578,6.942-14.834,10.912-10.407,6.78-14.907-16.557-1.173-19.521,6.562c-3.7,9.666.106,26.767.106,26.767Z" transform="translate(1320.559 -970.264)" fill="#6e8e66"/>
      </g>
      <g id="Group_19172" data-name="Group 19172" transform="translate(179.061 95.894)">
        <path id="Path_8586" data-name="Path 8586" d="M-968.549,1002.744a194.818,194.818,0,0,0,9.926-32.811c3.188-16.514,6.232-19.866-1.119-21.907-8.052-2.235-11.485,12.935-11.461,22.433s-3.082,26.414-3.91,29.051Z" transform="translate(995.25 -947.805)" fill="#4c674d"/>
        <path id="Path_8587" data-name="Path 8587" d="M-981.224,1013.962s6.859-16.312,6.461-32.209-4.055-21.9-9.362-21.344-5.1,14.38-3.826,21.045,5.516,10.538,5.687,16.651-1.883,12.17-2.433,14.344Z" transform="translate(1002.04 -954.084)" fill="#587556"/>
        <path id="Path_8588" data-name="Path 8588" d="M-997.388,1022.676c1.514-5.638,2.871-19.6.7-27.33-2.934-10.465-9.482-17.025-14.776-15.582-5.837,1.591-4.546,12.624.15,19.235,4.992,7.027,8.148,14.768,8.941,18.53Z" transform="translate(1015.353 -963.672)" fill="#709168"/>
        <path id="Path_8589" data-name="Path 8589" d="M-971.743,1008.749c1.589-4.462,8.556-14.238,14.866-25.434,6-10.643,9.033-18.226,10.321-23.852s-3.234-6.731-6.478-2-8.089,16.4-11.18,24.018c-3.195,7.874-10.894,29.031-10.894,29.031Z" transform="translate(995.247 -951.146)" fill="#5f7d5c"/>
        <path id="Path_8590" data-name="Path 8590" d="M-963.388,1024.672a92.362,92.362,0,0,1,12.037-17.417c7.539-8.509,20.339-13.465,20.907-18.132s-8.854-6.246-17.481-.392c-7.378,5.007-9.254,12.1-12.842,20.128a88.616,88.616,0,0,0-5.224,15.7Z" transform="translate(990.692 -966.36)" fill="#698e66"/>
        <path id="Path_8591" data-name="Path 8591" d="M-959.895,1045.052s4.553-6.594,10.979-9.093,11.156-3.811,10.921-9.221-8.909-7.992-14.259-2.971c-6.686,6.273-12.591,21.778-12.591,21.778Z" transform="translate(990.12 -984.41)" fill="#63825f"/>
      </g>
      <g id="Group_19173" data-name="Group 19173" transform="translate(83.564 61.761)">
        <path id="Path_8592" data-name="Path 8592" d="M-1153.744,993.3s-6.591-22.406-16.493-36.761-29.2-25.292-34.782-21.821,10.289,16.334,15.673,21.735,18.8,16.465,22.627,21.976,7.525,13.121,8.2,15.421Z" transform="translate(1206.192 -906.808)" fill="#73936c"/>
        <path id="Path_8593" data-name="Path 8593" d="M-1106.138,965.192A253.043,253.043,0,0,1-1109,920.87c.5-17.825,3.82-28.261,1.2-36.25s-10.442-5.922-11.548,2.437,1,26.587,2.485,38.431c1.535,12.241,7.013,44.46,7.013,44.46Z" transform="translate(1162.961 -879.594)" fill="#7b9e71"/>
        <path id="Path_8594" data-name="Path 8594" d="M-1092.362,983.9a115.946,115.946,0,0,1,4.212-30.862c4.6-16.339,13.905-32.336,10.966-38.583s-14.19-1.445-17.81,11.222-5.117,22.213-4.059,34.944,2.611,25.112,2.611,25.112Z" transform="translate(1152.832 -895.648)" fill="#587556"/>
        <path id="Path_8595" data-name="Path 8595" d="M-1089.533,1009.233s3.086-11.577,11.822-18.959,15.5-12.122,11.646-19.091-19.48-4.839-24.862,5.175c-6.725,12.514-6.255,36.678-6.255,36.678Z" transform="translate(1151.735 -923.315)" fill="#6e8e66"/>
        <path id="Path_8596" data-name="Path 8596" d="M-1142.451,1028.646s-6.006-13.012-12.49-18.859-16.648-8.474-21.624-4.588c-9.866,7.705,8.21,13.02,12.7,13.769,5.956.994,10.277,1.482,12.784,3.726a26.747,26.747,0,0,1,5.252,6.374Z" transform="translate(1192.842 -941.427)" fill="#799970"/>
      </g>
      <g id="Group_19174" data-name="Group 19174" transform="translate(182.815 1.97)">
        <path id="Path_8597" data-name="Path 8597" d="M-1007.851,769.357a9.411,9.411,0,0,1,9.248-9.248,9.242,9.242,0,0,1,9.248,9.248,9.242,9.242,0,0,1-9.248,9.248A9.243,9.243,0,0,1-1007.851,769.357Zm5.717,29.755,28.955-38.386a1.073,1.073,0,0,1,1.486-.222h0a1.073,1.073,0,0,1,.227,1.513l-28.927,38.407a1.072,1.072,0,0,1-1.5.212l-.028-.021A1.072,1.072,0,0,1-1002.134,799.112Zm10.622-29.755a7.171,7.171,0,0,0-7.09-7.09,7.172,7.172,0,0,0-7.09,7.09,7.172,7.172,0,0,0,7.09,7.09A7.172,7.172,0,0,0-991.513,769.357Zm7.059,23.1a9.411,9.411,0,0,1,9.248-9.249,9.242,9.242,0,0,1,9.248,9.249,9.242,9.242,0,0,1-9.248,9.247A9.242,9.242,0,0,1-984.454,792.454Zm16.338,0a7.172,7.172,0,0,0-7.09-7.091,7.172,7.172,0,0,0-7.09,7.091,7.172,7.172,0,0,0,7.09,7.09A7.171,7.171,0,0,0-968.115,792.454Z" transform="translate(1007.851 -760.109)" fill="#fff"/>
      </g>
      <path id="Path_8598" data-name="Path 8598" d="M-1129.942,974.656s-2.542-19.011-9.31-35.349c-6.724-16.231-18.035-28.349-25.495-23.186-4.237,2.933,7.553,23.692,13.418,31.945s11.608,24.825,12.339,27.6Z" transform="translate(1269.5 -835.48)" fill="#84a579"/>
      <path id="Path_8599" data-name="Path 8599" d="M-1224.159,917.5a112.924,112.924,0,0,0-.261,31.705c2.412,16.238,9,32.5,9,32.5l9.245-4.121s-4.018-25.056-5.32-27.614-.46-3.538-.878-4.873c-.68-2.177-2.213-2.658-2.349-3.711s.513-2.052-.319-3.705c-.764-1.518-1.782-1.382-2.2-2.614s.719-2.9-.536-4.672-2.541-1.516-3.016-2.924.141-2.83-.464-5.058A16.405,16.405,0,0,0-1224.159,917.5Z" transform="translate(1299.366 -836.771)" fill="#558a6f"/>
    </g>
  </g>
</svg>
