<svg xmlns="http://www.w3.org/2000/svg" width="24" height="24" viewBox="0 0 24 24"><g transform="translate(-3377.667 -2448.5)"><path fill="#8eb823" d="M3380.667,2454.5a3,3,0,1,1,3-3A3,3,0,0,1,3380.667,2454.5Zm0-5a2,2,0,1,0,2,2A2,2,0,0,0,3380.667,2449.5Z"/><path fill="#8eb823" d="M3383.167,2472.5h-5a.5.5,0,0,1-.5-.5v-15a.5.5,0,0,1,.5-.5h5a.5.5,0,0,1,.5.5v15A.5.5,0,0,1,3383.167,2472.5Zm-4.5-1h4v-14h-4Z"/><path fill="#8eb823" d="M3401.167,2472.5h-5a.5.5,0,0,1-.5-.5v-9a2.353,2.353,0,0,0-1.3-2.336,2.623,2.623,0,0,0-2.7.556V2472a.5.5,0,0,1-.5.5h-5a.5.5,0,0,1-.5-.5v-15a.5.5,0,0,1,.5-.5h5a.5.5,0,0,1,.484.376,7.6,7.6,0,0,1,6.414-1.064c1.613.551,3.545,2.073,3.6,6.181V2472A.5.5,0,0,1,3401.167,2472.5Zm-4.5-1h4V2462c-.038-2.785-1.05-4.6-2.926-5.243a6.424,6.424,0,0,0-6.183,1.556.5.5,0,0,1-.891-.313v-.5h-4v14h4V2461a.5.5,0,0,1,.151-.358,3.663,3.663,0,0,1,3.94-.9,3.3,3.3,0,0,1,1.909,3.257Z"/></g></svg>