<svg id="Light_1px_phone_call_outgoing" data-name="Light 1px/phone_call_outgoing" xmlns="http://www.w3.org/2000/svg" width="14.872" height="14.871" viewBox="0 0 14.872 14.871">
  <g id="Group" transform="translate(0 0)">
    <path id="Combined_Shape" data-name="Combined Shape" d="M10.654,14.871h0a3.765,3.765,0,0,1-1.834-.48A21.184,21.184,0,0,1,4.1,10.777,21.184,21.184,0,0,1,.482,6.053,3.775,3.775,0,0,1,.241,2.876,5.256,5.256,0,0,1,2.364.294,1.834,1.834,0,0,1,4.839.75l1.188,1.62a2.355,2.355,0,0,1,.209,2.455l-.323.646A.647.647,0,0,0,5.9,6.06,6.74,6.74,0,0,0,7.16,7.713a6.74,6.74,0,0,0,1.653,1.26.589.589,0,0,0,.273.065A.715.715,0,0,0,9.4,8.96l.646-.323A2.374,2.374,0,0,1,11.1,8.388a2.351,2.351,0,0,1,1.4.458l1.62,1.188a1.836,1.836,0,0,1,.455,2.475,5.532,5.532,0,0,1-1.736,1.717A4.219,4.219,0,0,1,10.654,14.871ZM3.36.788a1.042,1.042,0,0,0-.567.168A4.429,4.429,0,0,0,.983,3.142a3.069,3.069,0,0,0,.189,2.531,20.428,20.428,0,0,0,3.48,4.548A20.428,20.428,0,0,0,9.2,13.7a2.988,2.988,0,0,0,1.456.378,4.015,4.015,0,0,0,3.261-2,1.047,1.047,0,0,0-.26-1.411l-1.62-1.188A1.575,1.575,0,0,0,10.4,9.342l-.646.323a1.508,1.508,0,0,1-.671.161,1.366,1.366,0,0,1-.631-.153A7.56,7.56,0,0,1,6.6,8.27,7.546,7.546,0,0,1,5.2,6.42a1.423,1.423,0,0,1,.009-1.3l.323-.646a1.57,1.57,0,0,0-.139-1.637L4.2,1.216A1.05,1.05,0,0,0,3.36.788Z"/>
    <path id="Union" d="M.788.394a.394.394,0,0,0,.394.394H2.989L.115,3.662a.394.394,0,0,0,.557.557L3.546,1.345V3.152a.394.394,0,0,0,.788,0V1.182A1.182,1.182,0,0,0,3.152,0H1.182A.394.394,0,0,0,.788.394Z" transform="translate(9.623 0.939)"/>
  </g>
</svg>
