<svg id="Group_693" data-name="Group 693" xmlns="http://www.w3.org/2000/svg" width="15.434" height="14.304" viewBox="0 0 15.434 14.304">
  <g id="Rating_Star-4" data-name="Rating/Star-4">
    <path id="rating" d="M15.4,5.417a.711.711,0,0,0-.574-.461l-4.345-.762a.157.157,0,0,1-.043-.03L8.345.388a.7.7,0,0,0-1.256,0L5,4.161c-.009.01-.033.028-.028.028L.606,4.956a.712.712,0,0,0-.573.459.682.682,0,0,0,.185.7L3.29,9.246l-.6,4.264a.674.674,0,0,0,.671.795.815.815,0,0,0,.345-.079l3.977-1.86c.014,0,.044,0,.041-.007l4,1.867a.734.734,0,0,0,.742-.045.685.685,0,0,0,.273-.671l-.594-4.246c0-.013.009-.039.006-.039h0l3.064-3.109a.679.679,0,0,0,.186-.7Z" transform="translate(0)" fill="#8DB723"/>
  </g>
</svg>
